Coordinates
version=1
nRows=9
nColumns=36
inDegrees=yes

Units are S.I. units (second, meters, Newtons, ...)
If the header above contains a line with 'inDegrees', this indicates whether rotational values are in degrees (yes) or radians (no).

endheader
time	pelvis_tilt	pelvis_list	pelvis_rotation	pelvis_tx	pelvis_ty	pelvis_tz	hip_flexion_r	hip_adduction_r	hip_rotation_r	knee_angle_r	knee_angle_r_beta	ankle_angle_r	subtalar_angle_r	mtp_angle_r	hip_flexion_l	hip_adduction_l	hip_rotation_l	knee_angle_l	knee_angle_l_beta	ankle_angle_l	subtalar_angle_l	mtp_angle_l	lumbar_extension	lumbar_bending	lumbar_rotation	arm_flex_r	arm_add_r	arm_rot_r	elbow_flex_r	pro_sup_r	arm_flex_l	arm_add_l	arm_rot_l	elbow_flex_l	pro_sup_l
      3.53000000	      0.36738358	      2.10221278	      1.19137520	     -0.49517168	      0.56812051	     -0.70608524	     89.99183313	    -17.00326805	      9.54712600	    101.16154611	      1.76560206	     21.02507965	      5.93473215	     -7.49999987	     87.23471854	    -11.28503134	      2.77786512	     99.75812013	      1.74110765	     19.04819768	     -3.89654868	     -7.49999987	    -25.51189244	     -2.21928205	     -2.95156243	     10.87989289	     -9.20221079	     -0.90537391	    127.20709413	    101.05056109	     11.14354608	    -11.74115848	     -3.01288058	    133.04391179	    102.00264492
      3.54000000	     -0.89472456	      2.07145449	      1.04948818	     -0.49427738	      0.56597443	     -0.70501745	     91.39530501	    -16.73880693	      9.49150512	    101.18310525	      1.76597833	     21.04586130	      6.01927954	     -7.49999987	     88.62377936	    -11.60462315	      2.81121866	     99.75683156	      1.74108516	     18.96291707	     -3.79244130	     -7.49999987	    -25.51722701	     -2.20849724	     -2.80203000	     10.99225067	     -9.23029625	     -1.28130659	    127.74977557	    101.12369606	     11.24829500	    -11.81437474	     -3.40193014	    133.65831109	    102.08856267
      3.55000000	     -2.03067147	      2.17896024	      0.86791282	     -0.49324781	      0.56434937	     -0.70417477	     92.67056441	    -16.52876387	      9.54096295	    101.17595796	      1.76585359	     21.04020207	      6.00571326	     -7.49999987	     89.75767991	    -11.90691904	      2.68326297	     99.73027240	      1.74062162	     18.96074127	     -3.71771255	     -7.49999987	    -25.79279428	     -2.31877743	     -2.67588120	     11.11032747	     -9.28202509	     -1.68162391	    128.37272913	    101.19449204	     11.42179607	    -11.91995332	     -3.79296276	    134.31661493	    102.17459273
      3.56000000	     -3.09545044	      2.49047497	      0.71811953	     -0.49196762	      0.56313510	     -0.70376530	     93.93477547	    -16.46819963	      9.79532746	    101.16897906	      1.76573179	     20.98767940	      6.02511871	     -7.49999987	     90.65708373	    -12.11702107	      2.28702917	     99.66931593	      1.73955773	     19.03743222	     -3.67919133	     -7.49999987	    -26.23969656	     -2.57014997	     -2.65851729	     11.18256467	     -9.39773438	     -2.09897547	    129.05797417	    101.26133333	     11.58581145	    -12.01443496	     -4.20883256	    134.98126743	    102.25196488
      3.57000000	     -4.31548762	      2.75669126	      0.65574522	     -0.49050300	      0.56143931	     -0.70355563	     95.37381259	    -16.49371744	     10.01714305	    101.19664805	      1.76621470	     20.90157055	      6.09980570	     -7.49999987	     91.77620944	    -12.26253405	      1.93103917	     99.64429369	      1.73912101	     19.14910743	     -3.66398229	     -7.49999987	    -26.53838977	     -2.73433923	     -2.70881286	     11.20715870	     -9.63032525	     -2.53441621	    129.80086969	    101.32330330	     11.64300440	    -12.10217998	     -4.63654586	    135.69944667	    102.32821484
      3.58000000	     -5.82468962	      2.76409471	      0.65271882	     -0.48894219	      0.55877143	     -0.70340245	     97.03668215	    -16.49871590	      9.99718523	    101.22568368	      1.76672147	     20.82271432	      6.20212786	     -7.49999987	     93.39394639	    -12.37353707	      1.92942809	     99.70816675	      1.74023580	     19.24455477	     -3.64220127	     -7.49999987	    -26.52276302	     -2.61133102	     -2.72640108	     11.18447684	    -10.00535098	     -3.00003282	    130.62634338	    101.38084531	     11.55365001	    -12.20368458	     -5.10071077	    136.53685285	    102.41709749
      3.59000000	     -7.52118758	      2.59013130	      0.61946508	     -0.48720355	      0.55556967	     -0.70311989	     98.80650682	    -16.45736122	      9.75048289	    101.24630357	      1.76708135	     20.76008101	      6.29314807	     -7.49999987	     95.33160294	    -12.56123529	      2.13985394	     99.84268334	      1.74258356	     19.31118389	     -3.57470626	     -7.49999987	    -26.31934271	     -2.30857496	     -2.66670225	     11.12717888	    -10.40405926	     -3.47284024	    131.51816655	    101.43911010	     11.31390805	    -12.31903271	     -5.65455383	    137.42786924	    102.52611001
      3.60000000	     -9.22977695	      2.45643341	      0.53230985	     -0.48532975	      0.55242996	     -0.70261471	    100.57728356	    -16.36359419	      9.52075221	    101.25710032	      1.76726979	     20.72706382	      6.36509375	     -7.49999987	     97.23653709	    -12.84472512	      2.30100811	     99.97450934	      1.74488436	     19.40442886	     -3.46940219	     -7.49999987	    -26.17589217	     -2.07158656	     -2.58777823	     11.04430333	    -10.77520453	     -3.91488658	    132.44465768	    101.49444115	     11.02429871	    -12.50335967	     -6.30924926	    138.35703715	    102.64913543
      3.61000000	    -10.95772125	      2.36983348	      0.43420542	     -0.48326854	      0.54925963	     -0.70206035	    102.37969828	    -16.26233510	      9.35800866	    101.29819836	      1.76798709	     20.66484273	      6.46192953	     -7.49999987	     99.14188818	    -13.18406801	      2.39780740	    100.13040959	      1.74760533	     19.50939183	     -3.26707552	     -7.49999987	    -26.05186481	     -1.90255978	     -2.55272968	     10.93735409	    -11.13213984	     -4.38013555	    133.37553056	    101.53798021	     10.62496458	    -12.68776640	     -7.04401885	    139.31412120	    102.79335144
